solid OpenSCAD_Model
  facet normal 1 -0 0
    outer loop
      vertex 9.575 -5.075 4.5
      vertex 9.575 5.075 -5
      vertex 9.575 5.075 4.5
    endloop
  endfacet
  facet normal 1 0 0
    outer loop
      vertex 9.575 5.075 -5
      vertex 9.575 -5.075 4.5
      vertex 9.575 -5.075 -5
    endloop
  endfacet
  facet normal 0 0 1
    outer loop
      vertex 9.575 5.075 4.5
      vertex 9.075 4.575 4.5
      vertex 9.575 -5.075 4.5
    endloop
  endfacet
  facet normal 0 0 1
    outer loop
      vertex 9.575 5.075 4.5
      vertex -9.075 4.575 4.5
      vertex 9.075 4.575 4.5
    endloop
  endfacet
  facet normal 0 0 1
    outer loop
      vertex -9.075 4.575 4.5
      vertex -9.575 5.075 4.5
      vertex -9.075 -4.575 4.5
    endloop
  endfacet
  facet normal -0 0 1
    outer loop
      vertex -9.575 5.075 4.5
      vertex -9.075 4.575 4.5
      vertex 9.575 5.075 4.5
    endloop
  endfacet
  facet normal -0 0 1
    outer loop
      vertex 9.075 -4.575 4.5
      vertex 9.575 -5.075 4.5
      vertex 9.075 4.575 4.5
    endloop
  endfacet
  facet normal -0 0 1
    outer loop
      vertex -9.075 -4.575 4.5
      vertex 9.575 -5.075 4.5
      vertex 9.075 -4.575 4.5
    endloop
  endfacet
  facet normal 0 0 1
    outer loop
      vertex -9.075 -4.575 4.5
      vertex -9.575 -5.075 4.5
      vertex 9.575 -5.075 4.5
    endloop
  endfacet
  facet normal 0 0 1
    outer loop
      vertex -9.575 -5.075 4.5
      vertex -9.075 -4.575 4.5
      vertex -9.575 5.075 4.5
    endloop
  endfacet
  facet normal 0 0 -1
    outer loop
      vertex 9.575 -5.075 -5
      vertex 7 -4.575 -5
      vertex 9.575 5.075 -5
    endloop
  endfacet
  facet normal 0 0 -1
    outer loop
      vertex 9.575 -5.075 -5
      vertex -7 -4.575 -5
      vertex 7 -4.575 -5
    endloop
  endfacet
  facet normal -0 0 -1
    outer loop
      vertex -7 -4.575 -5
      vertex -9.575 -5.075 -5
      vertex -7 4.575 -5
    endloop
  endfacet
  facet normal 0 0 -1
    outer loop
      vertex -9.575 -5.075 -5
      vertex -7 -4.575 -5
      vertex 9.575 -5.075 -5
    endloop
  endfacet
  facet normal 0 0 -1
    outer loop
      vertex 7 4.575 -5
      vertex 9.575 5.075 -5
      vertex 7 -4.575 -5
    endloop
  endfacet
  facet normal 0 0 -1
    outer loop
      vertex -7 4.575 -5
      vertex 9.575 5.075 -5
      vertex 7 4.575 -5
    endloop
  endfacet
  facet normal 0 0 -1
    outer loop
      vertex -7 4.575 -5
      vertex -9.575 5.075 -5
      vertex 9.575 5.075 -5
    endloop
  endfacet
  facet normal 0 0 -1
    outer loop
      vertex -9.575 5.075 -5
      vertex -7 4.575 -5
      vertex -9.575 -5.075 -5
    endloop
  endfacet
  facet normal -1 0 0
    outer loop
      vertex -9.575 -5.075 -5
      vertex -9.575 5.075 4.5
      vertex -9.575 5.075 -5
    endloop
  endfacet
  facet normal -1 -0 0
    outer loop
      vertex -9.575 5.075 4.5
      vertex -9.575 -5.075 -5
      vertex -9.575 -5.075 4.5
    endloop
  endfacet
  facet normal 0 1 -0
    outer loop
      vertex 9.575 5.075 -5
      vertex -9.575 5.075 4.5
      vertex 9.575 5.075 4.5
    endloop
  endfacet
  facet normal 0 1 0
    outer loop
      vertex -9.575 5.075 4.5
      vertex 9.575 5.075 -5
      vertex -9.575 5.075 -5
    endloop
  endfacet
  facet normal 0 -1 0
    outer loop
      vertex -9.575 -5.075 -5
      vertex 9.575 -5.075 4.5
      vertex -9.575 -5.075 4.5
    endloop
  endfacet
  facet normal 0 -1 -0
    outer loop
      vertex 9.575 -5.075 4.5
      vertex -9.575 -5.075 -5
      vertex 9.575 -5.075 -5
    endloop
  endfacet
  facet normal -1 0 0
    outer loop
      vertex 9.075 -1.575 -4.5
      vertex 9.075 -4.575 -4.5
      vertex 9.075 -1.575 2.2
    endloop
  endfacet
  facet normal -1 0 0
    outer loop
      vertex 9.075 1.575 2.2
      vertex 9.075 4.575 -4.5
      vertex 9.075 1.575 -4.5
    endloop
  endfacet
  facet normal -1 0 0
    outer loop
      vertex 9.075 4.575 -4.5
      vertex 9.075 1.575 2.2
      vertex 9.075 4.575 4.5
    endloop
  endfacet
  facet normal -1 0 0
    outer loop
      vertex 9.075 -1.575 2.2
      vertex 9.075 4.575 4.5
      vertex 9.075 1.575 2.2
    endloop
  endfacet
  facet normal -1 0 0
    outer loop
      vertex 9.075 -1.575 2.2
      vertex 9.075 -4.575 4.5
      vertex 9.075 4.575 4.5
    endloop
  endfacet
  facet normal -1 0 0
    outer loop
      vertex 9.075 -4.575 4.5
      vertex 9.075 -1.575 2.2
      vertex 9.075 -4.575 -4.5
    endloop
  endfacet
  facet normal 0 0 1
    outer loop
      vertex 9.075 4.575 -4.5
      vertex 7.975 1.575 -4.5
      vertex 9.075 1.575 -4.5
    endloop
  endfacet
  facet normal 0 0 1
    outer loop
      vertex 7.975 1.575 -4.5
      vertex 7 4.575 -4.5
      vertex 7.975 -1.575 -4.5
    endloop
  endfacet
  facet normal -0 0 1
    outer loop
      vertex 7 4.575 -4.5
      vertex 7.975 1.575 -4.5
      vertex 9.075 4.575 -4.5
    endloop
  endfacet
  facet normal -0 0 1
    outer loop
      vertex 7.975 -1.575 -4.5
      vertex 9.075 -4.575 -4.5
      vertex 9.075 -1.575 -4.5
    endloop
  endfacet
  facet normal 0 0 1
    outer loop
      vertex 7.975 -1.575 -4.5
      vertex 7 -4.575 -4.5
      vertex 9.075 -4.575 -4.5
    endloop
  endfacet
  facet normal 0 0 1
    outer loop
      vertex 7 -4.575 -4.5
      vertex 7.975 -1.575 -4.5
      vertex 7 4.575 -4.5
    endloop
  endfacet
  facet normal 0 0 1
    outer loop
      vertex -7 4.575 -4.5
      vertex -7.975 1.575 -4.5
      vertex -7 -4.575 -4.5
    endloop
  endfacet
  facet normal -0 0 1
    outer loop
      vertex -9.075 4.575 -4.5
      vertex -7.975 1.575 -4.5
      vertex -7 4.575 -4.5
    endloop
  endfacet
  facet normal 0 0 1
    outer loop
      vertex -7.975 1.575 -4.5
      vertex -9.075 4.575 -4.5
      vertex -9.075 1.575 -4.5
    endloop
  endfacet
  facet normal -0 0 1
    outer loop
      vertex -7.975 -1.575 -4.5
      vertex -7 -4.575 -4.5
      vertex -7.975 1.575 -4.5
    endloop
  endfacet
  facet normal 0 0 1
    outer loop
      vertex -9.075 -4.575 -4.5
      vertex -7.975 -1.575 -4.5
      vertex -9.075 -1.575 -4.5
    endloop
  endfacet
  facet normal 0 0 1
    outer loop
      vertex -7.975 -1.575 -4.5
      vertex -9.075 -4.575 -4.5
      vertex -7 -4.575 -4.5
    endloop
  endfacet
  facet normal 1 0 0
    outer loop
      vertex -9.075 4.575 4.5
      vertex -9.075 1.575 2.2
      vertex -9.075 4.575 -4.5
    endloop
  endfacet
  facet normal 1 0 0
    outer loop
      vertex -9.075 4.575 4.5
      vertex -9.075 -1.575 2.2
      vertex -9.075 1.575 2.2
    endloop
  endfacet
  facet normal 1 -0 0
    outer loop
      vertex -9.075 -4.575 4.5
      vertex -9.075 -1.575 2.2
      vertex -9.075 4.575 4.5
    endloop
  endfacet
  facet normal 1 0 0
    outer loop
      vertex -9.075 -4.575 -4.5
      vertex -9.075 -1.575 2.2
      vertex -9.075 -4.575 4.5
    endloop
  endfacet
  facet normal 1 0 0
    outer loop
      vertex -9.075 -1.575 2.2
      vertex -9.075 -4.575 -4.5
      vertex -9.075 -1.575 -4.5
    endloop
  endfacet
  facet normal 1 0 0
    outer loop
      vertex -9.075 4.575 -4.5
      vertex -9.075 1.575 2.2
      vertex -9.075 1.575 -4.5
    endloop
  endfacet
  facet normal 0 -1 0
    outer loop
      vertex -7 4.575 -5
      vertex 7 4.575 -4.5
      vertex -7 4.575 -4.5
    endloop
  endfacet
  facet normal 0 -1 -0
    outer loop
      vertex 7 4.575 -4.5
      vertex -7 4.575 -5
      vertex 7 4.575 -5
    endloop
  endfacet
  facet normal 0 -1 0
    outer loop
      vertex -7 4.575 -4.5
      vertex -9.075 4.575 4.5
      vertex -9.075 4.575 -4.5
    endloop
  endfacet
  facet normal 0 -1 0
    outer loop
      vertex -9.075 4.575 4.5
      vertex -7 4.575 -4.5
      vertex 9.075 4.575 4.5
    endloop
  endfacet
  facet normal 0 -1 0
    outer loop
      vertex 7 4.575 -4.5
      vertex 9.075 4.575 4.5
      vertex -7 4.575 -4.5
    endloop
  endfacet
  facet normal 0 -1 -0
    outer loop
      vertex 9.075 4.575 4.5
      vertex 7 4.575 -4.5
      vertex 9.075 4.575 -4.5
    endloop
  endfacet
  facet normal 0 1 -0
    outer loop
      vertex 7 -4.575 -5
      vertex -7 -4.575 -4.5
      vertex 7 -4.575 -4.5
    endloop
  endfacet
  facet normal 0 1 0
    outer loop
      vertex -7 -4.575 -4.5
      vertex 7 -4.575 -5
      vertex -7 -4.575 -5
    endloop
  endfacet
  facet normal 0 1 0
    outer loop
      vertex 7 -4.575 -4.5
      vertex 9.075 -4.575 4.5
      vertex 9.075 -4.575 -4.5
    endloop
  endfacet
  facet normal 0 1 0
    outer loop
      vertex 9.075 -4.575 4.5
      vertex 7 -4.575 -4.5
      vertex -9.075 -4.575 4.5
    endloop
  endfacet
  facet normal 0 1 -0
    outer loop
      vertex -7 -4.575 -4.5
      vertex -9.075 -4.575 4.5
      vertex 7 -4.575 -4.5
    endloop
  endfacet
  facet normal 0 1 0
    outer loop
      vertex -9.075 -4.575 4.5
      vertex -7 -4.575 -4.5
      vertex -9.075 -4.575 -4.5
    endloop
  endfacet
  facet normal -1 0 0
    outer loop
      vertex 7 -4.575 -5
      vertex 7 4.575 -4.5
      vertex 7 4.575 -5
    endloop
  endfacet
  facet normal -1 -0 0
    outer loop
      vertex 7 4.575 -4.5
      vertex 7 -4.575 -5
      vertex 7 -4.575 -4.5
    endloop
  endfacet
  facet normal 1 -0 0
    outer loop
      vertex -7 -4.575 -4.5
      vertex -7 4.575 -5
      vertex -7 4.575 -4.5
    endloop
  endfacet
  facet normal 1 0 0
    outer loop
      vertex -7 4.575 -5
      vertex -7 -4.575 -4.5
      vertex -7 -4.575 -5
    endloop
  endfacet
  facet normal 1 0 0
    outer loop
      vertex -7.975 1.575 2.2
      vertex -7.975 0.5 -1.3
      vertex -7.975 1.575 -4.5
    endloop
  endfacet
  facet normal 1 0 0
    outer loop
      vertex -7.975 1.575 2.2
      vertex -7.975 -0.5 -1.3
      vertex -7.975 0.5 -1.3
    endloop
  endfacet
  facet normal 1 0 0
    outer loop
      vertex -7.975 -1.575 -4.5
      vertex -7.975 -0.5 -1.3
      vertex -7.975 -1.575 2.2
    endloop
  endfacet
  facet normal 1 -0 0
    outer loop
      vertex -7.975 -1.575 2.2
      vertex -7.975 -0.5 -1.3
      vertex -7.975 1.575 2.2
    endloop
  endfacet
  facet normal 1 -0 0
    outer loop
      vertex -7.975 0.5 -1.8
      vertex -7.975 1.575 -4.5
      vertex -7.975 0.5 -1.3
    endloop
  endfacet
  facet normal 1 -0 0
    outer loop
      vertex -7.975 -0.5 -1.8
      vertex -7.975 1.575 -4.5
      vertex -7.975 0.5 -1.8
    endloop
  endfacet
  facet normal 1 0 0
    outer loop
      vertex -7.975 -0.5 -1.8
      vertex -7.975 -1.575 -4.5
      vertex -7.975 1.575 -4.5
    endloop
  endfacet
  facet normal 1 0 0
    outer loop
      vertex -7.975 -0.5 -1.3
      vertex -7.975 -1.575 -4.5
      vertex -7.975 -0.5 -1.8
    endloop
  endfacet
  facet normal -0 0 1
    outer loop
      vertex -9.075 1.575 2.2
      vertex -7.975 -1.575 2.2
      vertex -7.975 1.575 2.2
    endloop
  endfacet
  facet normal 0 0 1
    outer loop
      vertex -7.975 -1.575 2.2
      vertex -9.075 1.575 2.2
      vertex -9.075 -1.575 2.2
    endloop
  endfacet
  facet normal 0 1 -0
    outer loop
      vertex -7.975 1.575 -4.5
      vertex -9.075 1.575 2.2
      vertex -7.975 1.575 2.2
    endloop
  endfacet
  facet normal 0 1 0
    outer loop
      vertex -9.075 1.575 2.2
      vertex -7.975 1.575 -4.5
      vertex -9.075 1.575 -4.5
    endloop
  endfacet
  facet normal 0 -1 0
    outer loop
      vertex -9.075 -1.575 -4.5
      vertex -7.975 -1.575 2.2
      vertex -9.075 -1.575 2.2
    endloop
  endfacet
  facet normal 0 -1 -0
    outer loop
      vertex -7.975 -1.575 2.2
      vertex -9.075 -1.575 -4.5
      vertex -7.975 -1.575 -4.5
    endloop
  endfacet
  facet normal 0 1 0
    outer loop
      vertex -7.67501 0.5 -1.8
      vertex -7.975 0.5 -1.8
      vertex -7.975 0.5 -1.3
    endloop
  endfacet
  facet normal 0 0 -1
    outer loop
      vertex -7.975 -0.5 -1.8
      vertex -7.67501 0.5 -1.8
      vertex -7.67501 -0.5 -1.8
    endloop
  endfacet
  facet normal -0 0 -1
    outer loop
      vertex -7.67501 0.5 -1.8
      vertex -7.975 -0.5 -1.8
      vertex -7.975 0.5 -1.8
    endloop
  endfacet
  facet normal 0 -1 0
    outer loop
      vertex -7.975 -0.5 -1.3
      vertex -7.975 -0.5 -1.8
      vertex -7.67501 -0.5 -1.8
    endloop
  endfacet
  facet normal 0.8575 -0 0.514483
    outer loop
      vertex -7.975 -0.5 -1.3
      vertex -7.67501 0.5 -1.8
      vertex -7.975 0.5 -1.3
    endloop
  endfacet
  facet normal 0.8575 0 0.514483
    outer loop
      vertex -7.67501 0.5 -1.8
      vertex -7.975 -0.5 -1.3
      vertex -7.67501 -0.5 -1.8
    endloop
  endfacet
  facet normal -0 0 1
    outer loop
      vertex 7.975 1.575 2.2
      vertex 9.075 -1.575 2.2
      vertex 9.075 1.575 2.2
    endloop
  endfacet
  facet normal 0 0 1
    outer loop
      vertex 9.075 -1.575 2.2
      vertex 7.975 1.575 2.2
      vertex 7.975 -1.575 2.2
    endloop
  endfacet
  facet normal -1 0 0
    outer loop
      vertex 7.975 0.5 -1.3
      vertex 7.975 1.575 -4.5
      vertex 7.975 0.5 -1.8
    endloop
  endfacet
  facet normal -1 0 0
    outer loop
      vertex 7.975 1.575 -4.5
      vertex 7.975 -0.5 -1.8
      vertex 7.975 0.5 -1.8
    endloop
  endfacet
  facet normal -1 -0 0
    outer loop
      vertex 7.975 -0.5 -1.8
      vertex 7.975 -1.575 -4.5
      vertex 7.975 -0.5 -1.3
    endloop
  endfacet
  facet normal -1 0 0
    outer loop
      vertex 7.975 -1.575 -4.5
      vertex 7.975 -0.5 -1.8
      vertex 7.975 1.575 -4.5
    endloop
  endfacet
  facet normal -1 0 0
    outer loop
      vertex 7.975 1.575 -4.5
      vertex 7.975 0.5 -1.3
      vertex 7.975 1.575 2.2
    endloop
  endfacet
  facet normal -1 0 0
    outer loop
      vertex 7.975 -0.5 -1.3
      vertex 7.975 1.575 2.2
      vertex 7.975 0.5 -1.3
    endloop
  endfacet
  facet normal -1 0 0
    outer loop
      vertex 7.975 -0.5 -1.3
      vertex 7.975 -1.575 2.2
      vertex 7.975 1.575 2.2
    endloop
  endfacet
  facet normal -1 0 0
    outer loop
      vertex 7.975 -1.575 2.2
      vertex 7.975 -0.5 -1.3
      vertex 7.975 -1.575 -4.5
    endloop
  endfacet
  facet normal 0 1 -0
    outer loop
      vertex 9.075 1.575 -4.5
      vertex 7.975 1.575 2.2
      vertex 9.075 1.575 2.2
    endloop
  endfacet
  facet normal 0 1 0
    outer loop
      vertex 7.975 1.575 2.2
      vertex 9.075 1.575 -4.5
      vertex 7.975 1.575 -4.5
    endloop
  endfacet
  facet normal 0 -1 0
    outer loop
      vertex 7.975 -1.575 -4.5
      vertex 9.075 -1.575 2.2
      vertex 7.975 -1.575 2.2
    endloop
  endfacet
  facet normal 0 -1 -0
    outer loop
      vertex 9.075 -1.575 2.2
      vertex 7.975 -1.575 -4.5
      vertex 9.075 -1.575 -4.5
    endloop
  endfacet
  facet normal 0 -1 -0
    outer loop
      vertex 7.975 -0.5 -1.3
      vertex 7.67501 -0.5 -1.8
      vertex 7.975 -0.5 -1.8
    endloop
  endfacet
  facet normal 0 1 -0
    outer loop
      vertex 7.975 0.5 -1.8
      vertex 7.67501 0.5 -1.8
      vertex 7.975 0.5 -1.3
    endloop
  endfacet
  facet normal 0 0 -1
    outer loop
      vertex 7.67501 -0.5 -1.8
      vertex 7.975 0.5 -1.8
      vertex 7.975 -0.5 -1.8
    endloop
  endfacet
  facet normal -0 0 -1
    outer loop
      vertex 7.975 0.5 -1.8
      vertex 7.67501 -0.5 -1.8
      vertex 7.67501 0.5 -1.8
    endloop
  endfacet
  facet normal -0.8575 0 0.514483
    outer loop
      vertex 7.67501 -0.5 -1.8
      vertex 7.975 0.5 -1.3
      vertex 7.67501 0.5 -1.8
    endloop
  endfacet
  facet normal -0.8575 0 0.514483
    outer loop
      vertex 7.975 0.5 -1.3
      vertex 7.67501 -0.5 -1.8
      vertex 7.975 -0.5 -1.3
    endloop
  endfacet
endsolid OpenSCAD_Model
