solid OpenSCAD_Model
  facet normal 1 -0 0
    outer loop
      vertex 9.55 -5.05 4.5
      vertex 9.55 5.05 -5
      vertex 9.55 5.05 4.5
    endloop
  endfacet
  facet normal 1 0 0
    outer loop
      vertex 9.55 5.05 -5
      vertex 9.55 -5.05 4.5
      vertex 9.55 -5.05 -5
    endloop
  endfacet
  facet normal 0 0 1
    outer loop
      vertex 9.55 5.05 4.5
      vertex 9.05 4.55 4.5
      vertex 9.55 -5.05 4.5
    endloop
  endfacet
  facet normal 0 0 1
    outer loop
      vertex 9.55 5.05 4.5
      vertex -9.05 4.55 4.5
      vertex 9.05 4.55 4.5
    endloop
  endfacet
  facet normal 0 0 1
    outer loop
      vertex -9.05 4.55 4.5
      vertex -9.55 5.05 4.5
      vertex -9.05 -4.55 4.5
    endloop
  endfacet
  facet normal -0 0 1
    outer loop
      vertex -9.55 5.05 4.5
      vertex -9.05 4.55 4.5
      vertex 9.55 5.05 4.5
    endloop
  endfacet
  facet normal -0 0 1
    outer loop
      vertex 9.05 -4.55 4.5
      vertex 9.55 -5.05 4.5
      vertex 9.05 4.55 4.5
    endloop
  endfacet
  facet normal -0 0 1
    outer loop
      vertex -9.05 -4.55 4.5
      vertex 9.55 -5.05 4.5
      vertex 9.05 -4.55 4.5
    endloop
  endfacet
  facet normal 0 0 1
    outer loop
      vertex -9.05 -4.55 4.5
      vertex -9.55 -5.05 4.5
      vertex 9.55 -5.05 4.5
    endloop
  endfacet
  facet normal 0 0 1
    outer loop
      vertex -9.55 -5.05 4.5
      vertex -9.05 -4.55 4.5
      vertex -9.55 5.05 4.5
    endloop
  endfacet
  facet normal 0 0 -1
    outer loop
      vertex 9.55 -5.05 -5
      vertex 7 -4.55 -5
      vertex 9.55 5.05 -5
    endloop
  endfacet
  facet normal 0 0 -1
    outer loop
      vertex 9.55 -5.05 -5
      vertex -7 -4.55 -5
      vertex 7 -4.55 -5
    endloop
  endfacet
  facet normal -0 0 -1
    outer loop
      vertex -7 -4.55 -5
      vertex -9.55 -5.05 -5
      vertex -7 4.55 -5
    endloop
  endfacet
  facet normal 0 0 -1
    outer loop
      vertex -9.55 -5.05 -5
      vertex -7 -4.55 -5
      vertex 9.55 -5.05 -5
    endloop
  endfacet
  facet normal 0 0 -1
    outer loop
      vertex 7 4.55 -5
      vertex 9.55 5.05 -5
      vertex 7 -4.55 -5
    endloop
  endfacet
  facet normal 0 0 -1
    outer loop
      vertex -7 4.55 -5
      vertex 9.55 5.05 -5
      vertex 7 4.55 -5
    endloop
  endfacet
  facet normal 0 0 -1
    outer loop
      vertex -7 4.55 -5
      vertex -9.55 5.05 -5
      vertex 9.55 5.05 -5
    endloop
  endfacet
  facet normal 0 0 -1
    outer loop
      vertex -9.55 5.05 -5
      vertex -7 4.55 -5
      vertex -9.55 -5.05 -5
    endloop
  endfacet
  facet normal -1 0 0
    outer loop
      vertex -9.55 -5.05 -5
      vertex -9.55 5.05 4.5
      vertex -9.55 5.05 -5
    endloop
  endfacet
  facet normal -1 -0 0
    outer loop
      vertex -9.55 5.05 4.5
      vertex -9.55 -5.05 -5
      vertex -9.55 -5.05 4.5
    endloop
  endfacet
  facet normal 0 1 -0
    outer loop
      vertex 9.55 5.05 -5
      vertex -9.55 5.05 4.5
      vertex 9.55 5.05 4.5
    endloop
  endfacet
  facet normal 0 1 0
    outer loop
      vertex -9.55 5.05 4.5
      vertex 9.55 5.05 -5
      vertex -9.55 5.05 -5
    endloop
  endfacet
  facet normal 0 -1 0
    outer loop
      vertex -9.55 -5.05 -5
      vertex 9.55 -5.05 4.5
      vertex -9.55 -5.05 4.5
    endloop
  endfacet
  facet normal 0 -1 -0
    outer loop
      vertex 9.55 -5.05 4.5
      vertex -9.55 -5.05 -5
      vertex 9.55 -5.05 -5
    endloop
  endfacet
  facet normal -1 0 0
    outer loop
      vertex 9.05 -1.675 -4.5
      vertex 9.05 -4.55 -4.5
      vertex 9.05 -1.675 2.2
    endloop
  endfacet
  facet normal -1 0 0
    outer loop
      vertex 9.05 1.675 2.2
      vertex 9.05 4.55 -4.5
      vertex 9.05 1.675 -4.5
    endloop
  endfacet
  facet normal -1 0 0
    outer loop
      vertex 9.05 4.55 -4.5
      vertex 9.05 1.675 2.2
      vertex 9.05 4.55 4.5
    endloop
  endfacet
  facet normal -1 0 0
    outer loop
      vertex 9.05 -1.675 2.2
      vertex 9.05 4.55 4.5
      vertex 9.05 1.675 2.2
    endloop
  endfacet
  facet normal -1 0 0
    outer loop
      vertex 9.05 -1.675 2.2
      vertex 9.05 -4.55 4.5
      vertex 9.05 4.55 4.5
    endloop
  endfacet
  facet normal -1 0 0
    outer loop
      vertex 9.05 -4.55 4.5
      vertex 9.05 -1.675 2.2
      vertex 9.05 -4.55 -4.5
    endloop
  endfacet
  facet normal 0 0 1
    outer loop
      vertex 9.05 4.55 -4.5
      vertex 7.95 1.675 -4.5
      vertex 9.05 1.675 -4.5
    endloop
  endfacet
  facet normal 0 0 1
    outer loop
      vertex 7.95 1.675 -4.5
      vertex 7 4.55 -4.5
      vertex 7.95 -1.675 -4.5
    endloop
  endfacet
  facet normal -0 0 1
    outer loop
      vertex 7 4.55 -4.5
      vertex 7.95 1.675 -4.5
      vertex 9.05 4.55 -4.5
    endloop
  endfacet
  facet normal -0 0 1
    outer loop
      vertex 7.95 -1.675 -4.5
      vertex 9.05 -4.55 -4.5
      vertex 9.05 -1.675 -4.5
    endloop
  endfacet
  facet normal 0 0 1
    outer loop
      vertex 7.95 -1.675 -4.5
      vertex 7 -4.55 -4.5
      vertex 9.05 -4.55 -4.5
    endloop
  endfacet
  facet normal 0 0 1
    outer loop
      vertex 7 -4.55 -4.5
      vertex 7.95 -1.675 -4.5
      vertex 7 4.55 -4.5
    endloop
  endfacet
  facet normal 0 0 1
    outer loop
      vertex -7 4.55 -4.5
      vertex -7.95 1.675 -4.5
      vertex -7 -4.55 -4.5
    endloop
  endfacet
  facet normal -0 0 1
    outer loop
      vertex -9.05 4.55 -4.5
      vertex -7.95 1.675 -4.5
      vertex -7 4.55 -4.5
    endloop
  endfacet
  facet normal 0 0 1
    outer loop
      vertex -7.95 1.675 -4.5
      vertex -9.05 4.55 -4.5
      vertex -9.05 1.675 -4.5
    endloop
  endfacet
  facet normal -0 0 1
    outer loop
      vertex -7.95 -1.675 -4.5
      vertex -7 -4.55 -4.5
      vertex -7.95 1.675 -4.5
    endloop
  endfacet
  facet normal 0 0 1
    outer loop
      vertex -9.05 -4.55 -4.5
      vertex -7.95 -1.675 -4.5
      vertex -9.05 -1.675 -4.5
    endloop
  endfacet
  facet normal 0 0 1
    outer loop
      vertex -7.95 -1.675 -4.5
      vertex -9.05 -4.55 -4.5
      vertex -7 -4.55 -4.5
    endloop
  endfacet
  facet normal 1 0 0
    outer loop
      vertex -9.05 4.55 4.5
      vertex -9.05 1.675 2.2
      vertex -9.05 4.55 -4.5
    endloop
  endfacet
  facet normal 1 0 0
    outer loop
      vertex -9.05 4.55 4.5
      vertex -9.05 -1.675 2.2
      vertex -9.05 1.675 2.2
    endloop
  endfacet
  facet normal 1 -0 0
    outer loop
      vertex -9.05 -4.55 4.5
      vertex -9.05 -1.675 2.2
      vertex -9.05 4.55 4.5
    endloop
  endfacet
  facet normal 1 0 0
    outer loop
      vertex -9.05 -4.55 -4.5
      vertex -9.05 -1.675 2.2
      vertex -9.05 -4.55 4.5
    endloop
  endfacet
  facet normal 1 0 0
    outer loop
      vertex -9.05 -1.675 2.2
      vertex -9.05 -4.55 -4.5
      vertex -9.05 -1.675 -4.5
    endloop
  endfacet
  facet normal 1 0 0
    outer loop
      vertex -9.05 4.55 -4.5
      vertex -9.05 1.675 2.2
      vertex -9.05 1.675 -4.5
    endloop
  endfacet
  facet normal 0 -1 0
    outer loop
      vertex -7 4.55 -5
      vertex 7 4.55 -4.5
      vertex -7 4.55 -4.5
    endloop
  endfacet
  facet normal 0 -1 -0
    outer loop
      vertex 7 4.55 -4.5
      vertex -7 4.55 -5
      vertex 7 4.55 -5
    endloop
  endfacet
  facet normal 0 -1 0
    outer loop
      vertex -7 4.55 -4.5
      vertex -9.05 4.55 4.5
      vertex -9.05 4.55 -4.5
    endloop
  endfacet
  facet normal 0 -1 0
    outer loop
      vertex -9.05 4.55 4.5
      vertex -7 4.55 -4.5
      vertex 9.05 4.55 4.5
    endloop
  endfacet
  facet normal 0 -1 0
    outer loop
      vertex 7 4.55 -4.5
      vertex 9.05 4.55 4.5
      vertex -7 4.55 -4.5
    endloop
  endfacet
  facet normal 0 -1 -0
    outer loop
      vertex 9.05 4.55 4.5
      vertex 7 4.55 -4.5
      vertex 9.05 4.55 -4.5
    endloop
  endfacet
  facet normal 0 1 -0
    outer loop
      vertex 7 -4.55 -5
      vertex -7 -4.55 -4.5
      vertex 7 -4.55 -4.5
    endloop
  endfacet
  facet normal 0 1 0
    outer loop
      vertex -7 -4.55 -4.5
      vertex 7 -4.55 -5
      vertex -7 -4.55 -5
    endloop
  endfacet
  facet normal 0 1 0
    outer loop
      vertex 7 -4.55 -4.5
      vertex 9.05 -4.55 4.5
      vertex 9.05 -4.55 -4.5
    endloop
  endfacet
  facet normal 0 1 0
    outer loop
      vertex 9.05 -4.55 4.5
      vertex 7 -4.55 -4.5
      vertex -9.05 -4.55 4.5
    endloop
  endfacet
  facet normal 0 1 -0
    outer loop
      vertex -7 -4.55 -4.5
      vertex -9.05 -4.55 4.5
      vertex 7 -4.55 -4.5
    endloop
  endfacet
  facet normal 0 1 0
    outer loop
      vertex -9.05 -4.55 4.5
      vertex -7 -4.55 -4.5
      vertex -9.05 -4.55 -4.5
    endloop
  endfacet
  facet normal -1 0 0
    outer loop
      vertex 7 -4.55 -5
      vertex 7 4.55 -4.5
      vertex 7 4.55 -5
    endloop
  endfacet
  facet normal -1 -0 0
    outer loop
      vertex 7 4.55 -4.5
      vertex 7 -4.55 -5
      vertex 7 -4.55 -4.5
    endloop
  endfacet
  facet normal 1 -0 0
    outer loop
      vertex -7 -4.55 -4.5
      vertex -7 4.55 -5
      vertex -7 4.55 -4.5
    endloop
  endfacet
  facet normal 1 0 0
    outer loop
      vertex -7 4.55 -5
      vertex -7 -4.55 -4.5
      vertex -7 -4.55 -5
    endloop
  endfacet
  facet normal 1 0 0
    outer loop
      vertex -7.95 1.675 2.2
      vertex -7.95 0.5 -1.3
      vertex -7.95 1.675 -4.5
    endloop
  endfacet
  facet normal 1 0 0
    outer loop
      vertex -7.95 1.675 2.2
      vertex -7.95 -0.5 -1.3
      vertex -7.95 0.5 -1.3
    endloop
  endfacet
  facet normal 1 0 0
    outer loop
      vertex -7.95 -1.675 -4.5
      vertex -7.95 -0.5 -1.3
      vertex -7.95 -1.675 2.2
    endloop
  endfacet
  facet normal 1 -0 0
    outer loop
      vertex -7.95 -1.675 2.2
      vertex -7.95 -0.5 -1.3
      vertex -7.95 1.675 2.2
    endloop
  endfacet
  facet normal 1 -0 0
    outer loop
      vertex -7.95 0.5 -1.8
      vertex -7.95 1.675 -4.5
      vertex -7.95 0.5 -1.3
    endloop
  endfacet
  facet normal 1 -0 0
    outer loop
      vertex -7.95 -0.5 -1.8
      vertex -7.95 1.675 -4.5
      vertex -7.95 0.5 -1.8
    endloop
  endfacet
  facet normal 1 0 0
    outer loop
      vertex -7.95 -0.5 -1.8
      vertex -7.95 -1.675 -4.5
      vertex -7.95 1.675 -4.5
    endloop
  endfacet
  facet normal 1 0 0
    outer loop
      vertex -7.95 -0.5 -1.3
      vertex -7.95 -1.675 -4.5
      vertex -7.95 -0.5 -1.8
    endloop
  endfacet
  facet normal -0 0 1
    outer loop
      vertex -9.05 1.675 2.2
      vertex -7.95 -1.675 2.2
      vertex -7.95 1.675 2.2
    endloop
  endfacet
  facet normal 0 0 1
    outer loop
      vertex -7.95 -1.675 2.2
      vertex -9.05 1.675 2.2
      vertex -9.05 -1.675 2.2
    endloop
  endfacet
  facet normal 0 1 -0
    outer loop
      vertex -7.95 1.675 -4.5
      vertex -9.05 1.675 2.2
      vertex -7.95 1.675 2.2
    endloop
  endfacet
  facet normal 0 1 0
    outer loop
      vertex -9.05 1.675 2.2
      vertex -7.95 1.675 -4.5
      vertex -9.05 1.675 -4.5
    endloop
  endfacet
  facet normal 0 -1 0
    outer loop
      vertex -9.05 -1.675 -4.5
      vertex -7.95 -1.675 2.2
      vertex -9.05 -1.675 2.2
    endloop
  endfacet
  facet normal 0 -1 -0
    outer loop
      vertex -7.95 -1.675 2.2
      vertex -9.05 -1.675 -4.5
      vertex -7.95 -1.675 -4.5
    endloop
  endfacet
  facet normal 0 1 0
    outer loop
      vertex -7.75 0.5 -1.8
      vertex -7.95 0.5 -1.8
      vertex -7.95 0.5 -1.3
    endloop
  endfacet
  facet normal 0 0 -1
    outer loop
      vertex -7.95 -0.5 -1.8
      vertex -7.75 0.5 -1.8
      vertex -7.75 -0.5 -1.8
    endloop
  endfacet
  facet normal -0 0 -1
    outer loop
      vertex -7.75 0.5 -1.8
      vertex -7.95 -0.5 -1.8
      vertex -7.95 0.5 -1.8
    endloop
  endfacet
  facet normal 0 -1 0
    outer loop
      vertex -7.95 -0.5 -1.3
      vertex -7.95 -0.5 -1.8
      vertex -7.75 -0.5 -1.8
    endloop
  endfacet
  facet normal 0.928477 -0 0.371391
    outer loop
      vertex -7.95 -0.5 -1.3
      vertex -7.75 0.5 -1.8
      vertex -7.95 0.5 -1.3
    endloop
  endfacet
  facet normal 0.928477 0 0.371391
    outer loop
      vertex -7.75 0.5 -1.8
      vertex -7.95 -0.5 -1.3
      vertex -7.75 -0.5 -1.8
    endloop
  endfacet
  facet normal -0 0 1
    outer loop
      vertex 7.95 1.675 2.2
      vertex 9.05 -1.675 2.2
      vertex 9.05 1.675 2.2
    endloop
  endfacet
  facet normal 0 0 1
    outer loop
      vertex 9.05 -1.675 2.2
      vertex 7.95 1.675 2.2
      vertex 7.95 -1.675 2.2
    endloop
  endfacet
  facet normal -1 0 0
    outer loop
      vertex 7.95 0.5 -1.3
      vertex 7.95 1.675 -4.5
      vertex 7.95 0.5 -1.8
    endloop
  endfacet
  facet normal -1 0 0
    outer loop
      vertex 7.95 1.675 -4.5
      vertex 7.95 -0.5 -1.8
      vertex 7.95 0.5 -1.8
    endloop
  endfacet
  facet normal -1 -0 0
    outer loop
      vertex 7.95 -0.5 -1.8
      vertex 7.95 -1.675 -4.5
      vertex 7.95 -0.5 -1.3
    endloop
  endfacet
  facet normal -1 0 0
    outer loop
      vertex 7.95 -1.675 -4.5
      vertex 7.95 -0.5 -1.8
      vertex 7.95 1.675 -4.5
    endloop
  endfacet
  facet normal -1 0 0
    outer loop
      vertex 7.95 1.675 -4.5
      vertex 7.95 0.5 -1.3
      vertex 7.95 1.675 2.2
    endloop
  endfacet
  facet normal -1 0 0
    outer loop
      vertex 7.95 -0.5 -1.3
      vertex 7.95 1.675 2.2
      vertex 7.95 0.5 -1.3
    endloop
  endfacet
  facet normal -1 0 0
    outer loop
      vertex 7.95 -0.5 -1.3
      vertex 7.95 -1.675 2.2
      vertex 7.95 1.675 2.2
    endloop
  endfacet
  facet normal -1 0 0
    outer loop
      vertex 7.95 -1.675 2.2
      vertex 7.95 -0.5 -1.3
      vertex 7.95 -1.675 -4.5
    endloop
  endfacet
  facet normal 0 1 -0
    outer loop
      vertex 9.05 1.675 -4.5
      vertex 7.95 1.675 2.2
      vertex 9.05 1.675 2.2
    endloop
  endfacet
  facet normal 0 1 0
    outer loop
      vertex 7.95 1.675 2.2
      vertex 9.05 1.675 -4.5
      vertex 7.95 1.675 -4.5
    endloop
  endfacet
  facet normal 0 -1 0
    outer loop
      vertex 7.95 -1.675 -4.5
      vertex 9.05 -1.675 2.2
      vertex 7.95 -1.675 2.2
    endloop
  endfacet
  facet normal 0 -1 -0
    outer loop
      vertex 9.05 -1.675 2.2
      vertex 7.95 -1.675 -4.5
      vertex 9.05 -1.675 -4.5
    endloop
  endfacet
  facet normal 0 -1 -0
    outer loop
      vertex 7.95 -0.5 -1.3
      vertex 7.75 -0.5 -1.8
      vertex 7.95 -0.5 -1.8
    endloop
  endfacet
  facet normal 0 1 -0
    outer loop
      vertex 7.95 0.5 -1.8
      vertex 7.75 0.5 -1.8
      vertex 7.95 0.5 -1.3
    endloop
  endfacet
  facet normal 0 0 -1
    outer loop
      vertex 7.75 -0.5 -1.8
      vertex 7.95 0.5 -1.8
      vertex 7.95 -0.5 -1.8
    endloop
  endfacet
  facet normal -0 0 -1
    outer loop
      vertex 7.95 0.5 -1.8
      vertex 7.75 -0.5 -1.8
      vertex 7.75 0.5 -1.8
    endloop
  endfacet
  facet normal -0.928477 0 0.371391
    outer loop
      vertex 7.75 -0.5 -1.8
      vertex 7.95 0.5 -1.3
      vertex 7.75 0.5 -1.8
    endloop
  endfacet
  facet normal -0.928477 0 0.371391
    outer loop
      vertex 7.95 0.5 -1.3
      vertex 7.75 -0.5 -1.8
      vertex 7.95 -0.5 -1.3
    endloop
  endfacet
endsolid OpenSCAD_Model
